<svg width="32" height="32" viewBox="0 0 32 32" fill="none" xmlns="http://www.w3.org/2000/svg">
<g clip-path="url(#clip0)">
<path d="M16.893 11.3733C16.5997 11.3467 16.293 11.3333 15.9997 11.3333C15.813 11.3333 15.6397 11.3333 15.453 11.3467C13.1997 11.4533 11.1063 12.2267 9.38635 13.4667L2.78635 1.48C2.62635 1.17333 2.62635 0.8 2.79969 0.493333C2.98635 0.186667 3.30635 0 3.66635 0H9.66635C10.0264 0 10.3464 0.186667 10.533 0.493333L16.1463 10.0933L16.893 11.3733Z" fill="#5B24B3"/>
<path d="M29.2136 1.48L22.6136 13.4667C21.6803 12.7867 20.6403 12.2533 19.5203 11.8933L17.2803 8.05333L21.4536 0.52C21.6403 0.2 21.9736 0 22.3336 0H28.3336C28.6936 0 29.0136 0.186667 29.2003 0.493333C29.3736 0.8 29.3736 1.17333 29.2136 1.48Z" fill="#5B24B3"/>
<path d="M16.0003 13.3335C10.8537 13.3335 6.66699 17.5202 6.66699 22.6668C6.66699 27.8135 10.8537 32.0002 16.0003 32.0002C21.147 32.0002 25.3337 27.8135 25.3337 22.6668C25.3337 17.5202 21.147 13.3335 16.0003 13.3335ZM21.0497 22.3428L19.235 24.2028L19.6657 26.8402C19.727 27.2175 19.5683 27.5975 19.2537 27.8188C19.083 27.9388 18.8803 28.0002 18.679 28.0002C18.5123 28.0002 18.3457 27.9588 18.195 27.8748L16.0003 26.6628L13.8057 27.8762C13.471 28.0615 13.0577 28.0402 12.7457 27.8188C12.4323 27.5975 12.2737 27.2175 12.3337 26.8402L12.7643 24.2028L10.9497 22.3428C10.6883 22.0748 10.5977 21.6815 10.7177 21.3268C10.8363 20.9708 11.143 20.7135 11.515 20.6562L13.983 20.2788L15.095 17.9095C15.423 17.2068 16.5763 17.2068 16.9043 17.9095L18.0163 20.2788L20.4843 20.6562C20.855 20.7122 21.163 20.9708 21.2817 21.3268C21.4017 21.6815 21.311 22.0748 21.0497 22.3428Z" fill="#FFC700"/>
</g>
<defs>
<clipPath id="clip0">
<rect width="32" height="32" fill="white"/>
</clipPath>
</defs>
</svg>
