<svg width="16" height="18" viewBox="0 0 16 18" fill="none" xmlns="http://www.w3.org/2000/svg">
<path d="M12.2188 7.7792C12.1324 7.58827 11.9425 7.46667 11.7335 7.46667H9.60013V0.533333C9.60013 0.238933 9.3612 0 9.0668 0H6.93346C6.63906 0 6.40013 0.238933 6.40013 0.533333V7.46667H4.2668C4.05773 7.46667 3.86786 7.58933 3.78146 7.7792C3.694 7.97013 3.72813 8.19307 3.86573 8.35093L7.59906 12.6176C7.7004 12.7339 7.84653 12.8 8.00013 12.8C8.15373 12.8 8.29986 12.7328 8.4012 12.6176L12.1345 8.35093C12.2732 8.19413 12.3052 7.97013 12.2188 7.7792Z" fill="#5B24B3"/>
<path d="M13.8667 11.7333V14.9333H2.13333V11.7333H0V16C0 16.5899 0.477867 17.0667 1.06667 17.0667H14.9333C15.5232 17.0667 16 16.5899 16 16V11.7333H13.8667Z" fill="#5B24B3"/>
</svg>
