<svg width="33" height="40" viewBox="0 0 33 40" fill="none" xmlns="http://www.w3.org/2000/svg">
<path d="M26.5004 18.45L25.2351 19.9989L25.2417 20.0043L25.2483 20.0096L26.5004 18.45ZM28.5004 31.95L26.7913 30.9112V30.9112L28.5004 31.95ZM23.8504 36L22.9793 34.1997L23.8504 36ZM8.95039 36.45L8.35074 38.358L8.36319 38.3619L8.3757 38.3657L8.95039 36.45ZM3.05039 33.45L1.29394 32.4935L0.488454 33.9727L1.80898 35.0181L3.05039 33.45ZM5.80039 28.4L7.06902 26.8539L5.2001 25.3204L4.04394 27.4435L5.80039 28.4ZM10.4504 30.95L9.78658 32.8366L9.80737 32.8439L9.82831 32.8508L10.4504 30.95ZM21.5004 30.45L22.6668 32.0747L22.6743 32.0692L21.5004 30.45ZM21.3504 22.45L20.241 24.1141L20.2637 24.1293L20.2869 24.1438L21.3504 22.45ZM5.65039 21.05L3.65926 20.8619L3.45251 23.05H5.65039V21.05ZM7.45039 2V-1.90735e-06H5.63046L5.45926 1.81186L7.45039 2ZM28.0004 2H30.0004V-1.90735e-06H28.0004V2ZM28.0004 7.45V9.45H30.0004V7.45H28.0004ZM12.9504 7.45V5.45H11.127L10.9589 7.2656L12.9504 7.45ZM12.2004 15.55L10.2089 15.3656L10.0067 17.55H12.2004V15.55ZM15.5504 17.55C20.2866 17.55 23.3872 18.4893 25.2351 19.9989L27.7657 16.9011C24.8803 14.544 20.6808 13.55 15.5504 13.55V17.55ZM25.2483 20.0096C27.0969 21.4936 28.0504 23.4958 28.0504 26.25H32.0504C32.0504 22.4042 30.6373 19.2064 27.7525 16.8904L25.2483 20.0096ZM28.0504 26.25C28.0504 28.0049 27.6236 29.5419 26.7913 30.9112L30.2094 32.9888C31.4438 30.9581 32.0504 28.6951 32.0504 26.25H28.0504ZM26.7913 30.9112C25.9875 32.2336 24.7538 33.341 22.9793 34.1997L24.7215 37.8003C27.0803 36.659 28.9466 35.0664 30.2094 32.9888L26.7913 30.9112ZM22.9793 34.1997C21.2569 35.0331 19.0247 35.5 16.2004 35.5V39.5C19.4427 39.5 22.3106 38.9669 24.7215 37.8003L22.9793 34.1997ZM16.2004 35.5C13.8899 35.5 11.6671 35.177 9.52509 34.5343L8.3757 38.3657C10.9003 39.123 13.5109 39.5 16.2004 39.5V35.5ZM9.55004 34.542C7.40451 33.8677 5.66657 32.9703 4.2918 31.8819L1.80898 35.0181C3.63421 36.4631 5.82961 37.5656 8.35074 38.358L9.55004 34.542ZM4.80685 34.4065L7.55685 29.3565L4.04394 27.4435L1.29394 32.4935L4.80685 34.4065ZM4.53176 29.9461C6.03452 31.1792 7.79597 32.1362 9.78658 32.8366L11.1142 29.0634C9.50481 28.4971 8.16626 27.7542 7.06902 26.8539L4.53176 29.9461ZM9.82831 32.8508C11.8629 33.5167 13.9562 33.85 16.1004 33.85V29.85C14.3779 29.85 12.7045 29.5833 11.0725 29.0492L9.82831 32.8508ZM16.1004 33.85C18.643 33.85 20.9075 33.3378 22.6668 32.0746L20.334 28.8254C19.4933 29.4289 18.1578 29.85 16.1004 29.85V33.85ZM22.6743 32.0692C24.5339 30.721 25.5004 28.7984 25.5004 26.5H21.5004C21.5004 27.5349 21.1335 28.2456 20.3265 28.8308L22.6743 32.0692ZM25.5004 26.5C25.5004 24.0646 24.4732 22.0493 22.4139 20.7562L20.2869 24.1438C21.0942 24.6507 21.5004 25.3354 21.5004 26.5H25.5004ZM22.4598 20.7859C20.5331 19.5014 17.5924 19.05 14.1004 19.05V23.05C17.475 23.05 19.3677 23.5319 20.241 24.1141L22.4598 20.7859ZM14.1004 19.05H5.65039V23.05H14.1004V19.05ZM7.64152 21.2381L9.44152 2.18814L5.45926 1.81186L3.65926 20.8619L7.64152 21.2381ZM7.45039 4H28.0004V-1.90735e-06H7.45039V4ZM26.0004 2V7.45H30.0004V2H26.0004ZM28.0004 5.45H12.9504V9.45H28.0004V5.45ZM10.9589 7.2656L10.2089 15.3656L14.1919 15.7344L14.9419 7.6344L10.9589 7.2656ZM12.2004 17.55H15.5504V13.55H12.2004V17.55Z" fill="#FF1111"/>
</svg>
