<svg width="30" height="21" viewBox="0 0 30 21" fill="none" xmlns="http://www.w3.org/2000/svg">
<path d="M29.3819 3.286C29.0362 2.00107 28.0229 0.988179 26.7378 0.642188C24.3902 0 14.9997 0 14.9997 0C14.9997 0 5.60945 0 3.26185 0.617841C2.00153 0.963466 0.963503 2.00126 0.617799 3.286C0 5.63288 0 10.5 0 10.5C0 10.5 0 15.3917 0.617799 17.714C0.963869 18.9987 1.97681 20.0116 3.26203 20.3576C5.63417 21 15 21 15 21C15 21 24.3902 21 26.7378 20.3822C28.0231 20.0364 29.0362 19.0235 29.3823 17.7387C29.9999 15.3917 29.9999 10.5247 29.9999 10.5247C29.9999 10.5247 30.0246 5.63288 29.3819 3.286ZM12.0099 14.9964V6.00358L19.8186 10.5L12.0099 14.9964Z" fill="#212121"/>
</svg>
