<svg width="74" height="70" viewBox="0 0 74 70" fill="none" xmlns="http://www.w3.org/2000/svg">
<path fill-rule="evenodd" clip-rule="evenodd" d="M47.8484 1.04656L47.8654 1.08722L52.0278 12.9206C60.8938 18.1704 66.8436 27.8683 66.8436 38.9625C66.8436 39.1266 66.8423 39.2905 66.8397 39.454L72.9542 41.0525C73.0859 41.087 73.1888 41.1904 73.2231 41.3229C73.2715 41.5102 73.1712 41.7013 72.9959 41.7697L72.9542 41.7832L66.5117 43.4683C66.3731 44.4006 66.1921 45.3189 65.9708 46.2212L72.1759 49.9078C72.2931 49.9774 72.3636 50.1053 72.3602 50.2422C72.3554 50.4357 72.2066 50.5916 72.0193 50.6087L71.9755 50.6102L64.6051 50.4261C64.2783 51.2267 63.9183 52.01 63.5269 52.7743L68.1658 57.5342C68.2611 57.632 68.2963 57.7739 68.2578 57.9052C68.2033 58.0909 68.0194 58.2027 67.8341 58.1706L67.7914 58.1605L61.425 56.2733C55.9945 64.0685 46.9959 69.1649 36.8138 69.1649C26.6706 69.1649 17.7018 64.1086 12.2643 56.3652L6.20849 58.1605C6.00958 58.2195 5.80078 58.1052 5.74213 57.9052C5.70362 57.7739 5.73881 57.632 5.83409 57.5342L10.2281 53.0255C9.78746 52.1849 9.38514 51.3208 9.02342 50.4356L2.02439 50.6102C1.81707 50.6154 1.64482 50.4506 1.63966 50.2422C1.63627 50.1053 1.70681 49.9774 1.82401 49.9078L7.70214 46.4156C7.45037 45.4179 7.24797 44.4004 7.09772 43.3659L1.04572 41.7832C0.845019 41.7308 0.724631 41.5247 0.776829 41.3229C0.811092 41.1904 0.913977 41.087 1.04572 41.0525L6.78644 39.5516C6.78272 39.3557 6.78084 39.1593 6.78084 38.9625C6.78084 27.6731 12.9423 17.8297 22.0686 12.6477L26.1345 1.08722C26.1723 0.979718 26.2564 0.895154 26.3634 0.857144C26.5449 0.792608 26.7429 0.876818 26.8256 1.04656L26.8426 1.08722L29.8309 9.5839C32.0716 9.04734 34.4097 8.76328 36.8138 8.76328C39.3407 8.76328 41.7948 9.07719 44.1395 9.66834L47.1573 1.08722C47.1951 0.979718 47.2792 0.895154 47.3862 0.857144C47.5677 0.792608 47.7657 0.876818 47.8484 1.04656ZM36.8144 21.221C27.0665 21.221 19.164 29.1656 19.164 38.9641C19.164 48.7654 27.0665 56.7071 36.8144 56.7071C46.5609 56.7071 54.4605 48.7654 54.4605 38.9641C54.4605 29.1656 46.5609 21.221 36.8144 21.221ZM36.8121 28.7713C37.2016 28.7713 37.5367 29.0484 37.6119 29.4327L39.3787 38.4655C39.4546 38.8537 39.454 39.253 39.3767 39.6409L37.6141 48.4961C37.5376 48.8804 37.2019 49.157 36.8121 49.157C36.4224 49.157 36.0869 48.8803 36.0108 48.496L34.2469 39.5887C34.1701 39.2008 34.1698 38.8015 34.2461 38.4134L36.0117 29.4325C36.0873 29.0483 36.4225 28.7713 36.8121 28.7713Z" fill="black"/>
</svg>
