<svg width="28" height="26" viewBox="0 0 28 26" fill="none" xmlns="http://www.w3.org/2000/svg">
<path fill-rule="evenodd" clip-rule="evenodd" d="M17.9446 0.653215L17.9508 0.668001L19.4644 4.97105C22.6884 6.88006 24.852 10.4066 24.852 14.4408C24.852 14.5005 24.8515 14.5601 24.8505 14.6196L27.074 15.2008C27.1219 15.2134 27.1593 15.251 27.1718 15.2991C27.1894 15.3673 27.1529 15.4368 27.0892 15.4616L27.074 15.4666L24.7313 16.0793C24.6809 16.4183 24.615 16.7522 24.5346 17.0804L26.791 18.4209C26.8336 18.4462 26.8592 18.4928 26.858 18.5425C26.8563 18.6129 26.8021 18.6696 26.734 18.6758L26.7181 18.6763L24.038 18.6094C23.9191 18.9005 23.7882 19.1854 23.6459 19.4633L25.3327 21.1942C25.3674 21.2297 25.3802 21.2814 25.3662 21.3291C25.3464 21.3966 25.2795 21.4373 25.2121 21.4256L25.1966 21.4219L22.8815 20.7357C20.9068 23.5703 17.6346 25.4235 13.932 25.4235C10.2436 25.4235 6.9822 23.5849 5.00492 20.7691L2.80282 21.4219C2.73049 21.4434 2.65456 21.4018 2.63323 21.3291C2.61923 21.2814 2.63203 21.2297 2.66668 21.1942L4.26448 19.5547C4.10426 19.249 3.95797 18.9347 3.82643 18.6129L1.28133 18.6763C1.20594 18.6782 1.14331 18.6183 1.14143 18.5425C1.1402 18.4928 1.16585 18.4462 1.20846 18.4209L3.34597 17.151C3.25441 16.7883 3.18081 16.4183 3.12618 16.0421L0.925451 15.4666C0.852468 15.4475 0.808691 15.3725 0.827671 15.2991C0.840131 15.251 0.877543 15.2134 0.925451 15.2008L3.01299 14.655C3.01163 14.5838 3.01095 14.5124 3.01095 14.4408C3.01095 10.3356 5.25149 6.75617 8.57014 4.87183L10.0487 0.668001C10.0624 0.628908 10.093 0.598157 10.1319 0.584335C10.1979 0.560868 10.2699 0.59149 10.2999 0.653215L10.3061 0.668001L11.3928 3.7577C12.2076 3.56259 13.0578 3.45929 13.932 3.45929C14.8509 3.45929 15.7433 3.57344 16.5959 3.78841L17.6933 0.668001C17.7071 0.628908 17.7376 0.598157 17.7765 0.584335C17.8425 0.560868 17.9145 0.59149 17.9446 0.653215ZM13.9322 7.98938C10.3875 7.98938 7.51392 10.8783 7.51392 14.4414C7.51392 18.0055 10.3875 20.8934 13.9322 20.8934C17.4764 20.8934 20.349 18.0055 20.349 14.4414C20.349 10.8783 17.4764 7.98938 13.9322 7.98938ZM13.9314 10.735C14.0731 10.735 14.1949 10.8357 14.2222 10.9754L14.8647 14.2601C14.8923 14.4013 14.8921 14.5465 14.864 14.6875L14.223 17.9076C14.1952 18.0473 14.0732 18.1479 13.9314 18.1479C13.7897 18.1479 13.6677 18.0473 13.64 17.9075L12.9986 14.6686C12.9707 14.5275 12.9706 14.3823 12.9983 14.2412L13.6404 10.9754C13.6678 10.8357 13.7897 10.735 13.9314 10.735Z" fill="#111111"/>
</svg>
